<?xml version="1.0" standalone="no"?>
<!DOCTYPE svg PUBLIC "-//W3C//DTD SVG 1.1//EN" "http://www.w3.org/Graphics/SVG/1.1/DTD/svg11.dtd" >
<svg xmlns="http://www.w3.org/2000/svg" xmlns:xlink="http://www.w3.org/1999/xlink" version="1.1">
<metadata>
Created by FontForge 20160405 at Mon May  7 09:53:06 2018
 By www-data
Rene Bieder
</metadata>
<defs>
<font id="RBNo2-Light" horiz-adv-x="313" >
  <font-face 
    font-family="RBNo2 Light"
    font-weight="300"
    font-stretch="normal"
    units-per-em="1000"
    panose-1="2 0 0 0 0 0 0 0 0 0"
    ascent="750"
    descent="-250"
    x-height="504"
    cap-height="706"
    bbox="-42 -198 761 884"
    underline-thickness="50"
    underline-position="-100"
    unicode-range="U+0020-FB02"
  />
<missing-glyph horiz-adv-x="187" 
 />
    <glyph glyph-name=".notdef" horiz-adv-x="187" 
 />
    <glyph glyph-name="B" unicode="B" horiz-adv-x="369" 
d="M269 393c29 -15 55 -45 55 -80v-222c0 -45 -33 -82 -76 -90v-1h-153h-1h-40v373v30v303h31h10h118v0c50 -1 90 -41 90 -91v-151c0 -29 -14 -54 -34 -71zM212 676h-117v-273h117c30 0 50 31 50 61v151c0 30 -20 61 -50 61zM233 30c30 0 50 31 50 61v222
c0 30 -26 60 -56 60h-15h-117v-343h138z" />
    <glyph glyph-name="C" unicode="C" horiz-adv-x="375" 
d="M328 484h-41v131c0 30 -20 64 -50 64h-91c-30 0 -50 -34 -50 -64v-524c0 -30 20 -60 50 -60h91c30 0 50 30 50 60v151h41v-151c0 -49 -39 -94 -87 -94h-95c-50 0 -91 44 -91 94v524c0 50 41 94 91 94h91c50 0 91 -44 91 -94v-131z" />
    <glyph glyph-name="D" unicode="D" horiz-adv-x="385" 
d="M237 706c61 0 91 -41 91 -91v-524c0 -50 -41 -91 -91 -91h-141h-1h-40v706h31h10h141zM237 30c30 0 50 31 50 61v524c0 30 -20 61 -50 61h-141v-646h141z" />
    <glyph glyph-name="E" unicode="E" horiz-adv-x="324" 
d="M95 30h216v-30h-216h-10h-31v706h253v-30h-212v-283h171v-30h-171v-333z" />
    <glyph glyph-name="F" unicode="F" horiz-adv-x="304" 
d="M297 676h-202v-283h181v-30h-181v-363h-41v363v30v283v30h41h202v-30z" />
    <glyph glyph-name="G" unicode="G" horiz-adv-x="390" 
d="M186 323h151v-31v-201c0 -50 -40 -94 -90 -94v0h-102c-50 0 -91 44 -91 94v524c0 50 41 94 91 94h96v0c49 -1 89 -44 89 -94v-131h-41v131c0 30 -20 64 -50 64h-94c-30 0 -50 -34 -50 -64v-524c0 -30 20 -64 50 -64h101c30 0 51 34 51 64v201h-111v31z" />
    <glyph glyph-name="H" unicode="H" horiz-adv-x="396" 
d="M298 706h41v-706h-41v363h-202v-363h-41v706h41v-313h202v313z" />
    <glyph glyph-name="I" unicode="I" horiz-adv-x="167" 
d="M106 706v-706h-41v706h41z" />
    <glyph glyph-name="J" unicode="J" horiz-adv-x="329" 
d="M225 706h40v-646c0 -33 -27 -63 -60 -63h-8h-2h-71h-2h-8c-33 0 -61 30 -61 63v0v162h41v-162v0c0 -13 8 -27 20 -31c3 -1 6 -2 10 -2v0h71v0c3 0 7 1 10 2c11 4 20 18 20 31v646z" />
    <glyph glyph-name="K" unicode="K" horiz-adv-x="345" 
d="M287 0l-137 377l-56 -109v-268h-39v706h39v-358l183 358h41l-147 -286l157 -420h-41z" />
    <glyph glyph-name="L" unicode="L" horiz-adv-x="307" 
d="M95 30h191v-30h-191h-41v30v676h41v-676z" />
    <glyph glyph-name="M" unicode="M" horiz-adv-x="494" 
d="M404 706h34v-706h-41v672l-123 -652h-1h-45v0l-133 648v-668h-41v706h32h9h30l125 -625l113 625h34h7z" />
    <glyph glyph-name="N" unicode="N" horiz-adv-x="395" 
d="M298 706h40v-706h-34h-6h-41l-161 669v-669h-41v706h32h9h31l171 -681v681z" />
    <glyph glyph-name="O" unicode="O" horiz-adv-x="398" 
d="M247 709c50 0 91 -44 91 -94v-524c0 -50 -41 -94 -91 -94h-101c-50 0 -91 44 -91 94v524c0 50 41 94 91 94h101zM247 27c30 0 51 34 51 64v524c0 30 -21 64 -51 64h-101c-30 0 -50 -34 -50 -64v-524c0 -30 20 -64 50 -64h101z" />
    <glyph glyph-name="P" unicode="P" horiz-adv-x="369" 
d="M237 706c50 0 91 -41 91 -91v-202c0 -50 -41 -90 -91 -90h-141v-323h-41v706h31h10h141zM237 353c30 0 50 30 50 60v202c0 30 -20 61 -50 61h-141v-323h141z" />
    <glyph glyph-name="Q" unicode="Q" horiz-adv-x="396" 
d="M338 91c0 -32 -17 -62 -42 -78l35 -75h-33l-37 62c-4 -1 -9 -2 -14 -2h-101c-50 0 -90 43 -90 93v524c0 51 40 94 90 94h101c50 0 91 -43 91 -94v-524zM247 29c30 0 51 32 51 62v524c0 30 -21 64 -51 64h-101c-30 0 -50 -34 -50 -64v-524c0 -30 20 -62 50 -62h101z" />
    <glyph glyph-name="R" unicode="R" horiz-adv-x="371" 
d="M317 0l-108 353h-114v-353h-40v706h30h10h141c50 0 91 -41 91 -91v-171c0 -50 -38 -82 -73 -90l107 -354h-44zM95 676v-293h141c30 0 50 31 50 61v171c0 30 -20 61 -50 61h-141z" />
    <glyph glyph-name="S" unicode="S" horiz-adv-x="375" 
d="M277 331c52 -36 53 -73 53 -99v-141c0 -50 -40 -93 -90 -94v0h-104v0c-49 1 -89 44 -89 94v141h41v-141c0 -30 20 -64 50 -64h101c30 0 51 34 51 64v141c0 39 -17 52 -50 76c-37 28 -81 60 -122 88c-45 30 -61 58 -61 98v121c0 50 40 94 90 94v0h82v0v0h1v0
c50 -1 90 -44 90 -94v-141h-41v141c0 30 -20 64 -50 64h-82v0c-30 0 -50 -34 -50 -64v-111c0 -49 19 -60 51 -82c29 -20 96 -69 129 -91z" />
    <glyph glyph-name="T" unicode="T" 
d="M308 706v-30h-131v-676h-40v676h-132v30h132h40h131z" />
    <glyph glyph-name="U" unicode="U" horiz-adv-x="396" 
d="M293 706h41v-615c0 -50 -41 -94 -91 -94h-91c-50 0 -91 44 -91 94v615h41v-615c0 -30 20 -64 50 -64h91c30 0 50 34 50 64v615z" />
    <glyph glyph-name="V" unicode="V" horiz-adv-x="342" 
d="M271 706h41l-111 -706h-10h-31h-10l-111 706h41l96 -610z" />
    <glyph glyph-name="W" unicode="W" horiz-adv-x="557" 
d="M494 706h41l-111 -706h-10h-31h-10l-90 578l-91 -578h-10h-31h-10l-111 706h41l96 -610l95 610h41l96 -610z" />
    <glyph glyph-name="X" unicode="X" horiz-adv-x="344" 
d="M321 0h-40l-106 337l-106 -337h-41l121 383h1l-101 323h40l86 -273l85 273h41l-102 -323h1z" />
    <glyph glyph-name="Y" unicode="Y" horiz-adv-x="351" 
d="M295 706h40l-136 -393v-313h-40v313l-137 393h41l116 -335z" />
    <glyph glyph-name="Z" unicode="Z" horiz-adv-x="328" 
d="M306 30v-30h-283v30l232 646h-201v30h242v-30v0l-232 -646h242z" />
    <glyph glyph-name="a" unicode="a" horiz-adv-x="312" 
d="M206 507c34 0 61 -30 61 -64v-413v-30h-41h-120h-11c-33 0 -60 30 -60 63v189c0 33 27 60 60 60h11h120v131c0 14 -8 28 -20 32c-3 1 -6 2 -10 2v0h-80v0c-4 0 -7 -1 -10 -2c-12 -4 -21 -18 -21 -32v-70h-40v70c0 34 27 64 61 64h10h80h1h9zM226 30v252h-120
c-4 0 -7 -1 -11 -2c-11 -4 -20 -15 -20 -28v-189c0 -13 9 -27 20 -31c4 -1 7 -2 11 -2h120z" />
    <glyph glyph-name="b" unicode="b" horiz-adv-x="330" 
d="M242 505c22 0 40 -18 40 -40v-402c0 -33 -27 -63 -61 -63h-131h-40v706h40v-201h152zM90 475v-445h121c4 0 7 1 10 2c12 4 21 18 21 31v402c0 5 -5 10 -11 10h-141z" />
    <glyph glyph-name="c" unicode="c" 
d="M268 353h-41v90c0 14 -8 28 -20 32c-3 1 -6 2 -10 2h-80c-4 0 -7 -1 -11 -2c-11 -4 -20 -18 -20 -32v-380c0 -13 9 -27 20 -31c4 -1 7 -2 11 -2h80c4 0 7 1 10 2c12 4 20 18 20 31v128h41v-128c0 -33 -27 -63 -61 -63h-10h-80h-11c-33 0 -60 30 -60 63v380
c0 34 27 64 60 64h11h80h10c34 0 61 -30 61 -64v-90z" />
    <glyph glyph-name="d" unicode="d" horiz-adv-x="329" 
d="M89 504h152v202h40v-706h-40h-131c-34 0 -61 30 -61 63v401c0 22 18 40 40 40zM241 30v444h-141c-6 0 -11 -5 -11 -10v-401c0 -13 9 -27 21 -31c3 -1 6 -2 10 -2h121z" />
    <glyph glyph-name="e" unicode="e" 
d="M215 507c34 0 61 -30 61 -64v-161v-30h-41h-151v-189c0 -13 9 -27 20 -31c4 -1 7 -2 11 -2v0l80 1v0c4 0 7 1 10 2c12 4 20 18 20 31v0v108h41v-108v0c0 -33 -27 -63 -61 -63h-9h-1l-80 -1h-2h-9c-33 0 -60 30 -60 63v189v30v161c0 34 27 64 60 64h11h90h10zM84 282h151
v161c0 14 -8 28 -20 32c-3 1 -6 2 -10 2h-90c-4 0 -7 -1 -11 -2c-11 -4 -20 -18 -20 -32v-161z" />
    <glyph glyph-name="f" unicode="f" horiz-adv-x="188" 
d="M132 674c-12 -4 -20 -15 -20 -29v-141h60v-30h-60v-474h-41v474h-60v30h60v141c0 34 28 61 61 61h10h40v-30h-40c-3 0 -7 -1 -10 -2z" />
    <glyph glyph-name="g" unicode="g" horiz-adv-x="328" 
d="M241 506h40v-30v-445v-31v-100c0 -34 -27 -61 -61 -61h-8h-2h-70h-2h-8c-34 0 -61 27 -61 61v0v50h41v-50v0c0 -14 8 -25 20 -29c3 -1 6 -2 10 -2v0h70v0c4 0 7 1 10 2c12 4 21 15 21 29v100h-121h-10c-34 0 -61 27 -61 61v387c0 33 27 59 61 59h10zM241 31v445l-121 1
c-4 0 -7 -1 -10 -2c-12 -4 -21 -14 -21 -27v-387c0 -13 9 -24 21 -29c3 -1 6 -1 10 -1h121z" />
    <glyph glyph-name="h" unicode="h" horiz-adv-x="328" 
d="M242 504c22 0 40 -18 40 -40v-464h-40v464c0 5 -5 10 -11 10h-141v-474h-40v706h40v-202h152z" />
    <glyph glyph-name="i" unicode="i" horiz-adv-x="146" 
d="M92 504v-504h-41v504h41zM92 647v-81h-41v81h41z" />
    <glyph glyph-name="j" unicode="j" horiz-adv-x="167" 
d="M67 504h41v-606c0 -33 -27 -60 -61 -60h-10h-30v30h30c4 0 7 1 10 2c12 4 20 15 20 28v606zM108 647v-81h-41v81h41z" />
    <glyph glyph-name="k" unicode="k" horiz-adv-x="303" 
d="M292 0h-37l-119 273l-48 -71v-202h-38v706h38v-437l154 235h40l-122 -190z" />
    <glyph glyph-name="l" unicode="l" horiz-adv-x="146" 
d="M94 0h-41v706h41v-706z" />
    <glyph glyph-name="m" unicode="m" horiz-adv-x="521" 
d="M433 507c22 0 40 -21 40 -43v-464h-40v464c0 5 -5 13 -10 13h-141v-10v-467h-41v467v10h-141c-5 0 -10 -8 -10 -13v-464h-40v464c0 22 18 43 40 43h151h41h151z" />
    <glyph glyph-name="n" unicode="n" horiz-adv-x="328" 
d="M241 507c23 0 41 -21 41 -43v-464h-41v464c0 5 -4 13 -10 13h-131c-5 0 -10 -8 -10 -13v-464h-40v464c0 22 18 43 40 43h151z" />
    <glyph glyph-name="o" unicode="o" horiz-adv-x="329" 
d="M229 506c30 -4 53 -32 53 -63v-380c0 -33 -27 -63 -61 -63h-111l-8 1c-29 3 -52 32 -52 62v380c0 34 27 64 60 64h111zM121 30h90c4 0 7 1 10 2c12 4 20 18 20 31v380c0 14 -8 28 -20 32c-3 1 -6 2 -10 2h-90c-4 0 -7 -1 -11 -2c-11 -4 -20 -18 -20 -32v-380
c0 -13 9 -27 20 -31c4 -1 7 -2 11 -2z" />
    <glyph glyph-name="p" unicode="p" horiz-adv-x="329" 
d="M241 504c23 0 41 -18 41 -40v-403c0 -34 -27 -61 -61 -61h-131v-161h-40v665h40h151zM90 474v-444h121c4 0 7 1 10 2c12 4 20 15 20 29v403c0 5 -4 10 -10 10h-141z" />
    <glyph glyph-name="q" unicode="q" horiz-adv-x="329" 
d="M91 504h151h40v-665h-40v161h-131c-34 0 -61 27 -61 61v403c0 22 18 40 41 40zM242 30v444h-141c-6 0 -10 -5 -10 -10v-403c0 -14 8 -25 20 -29c3 -1 6 -2 10 -2h121z" />
    <glyph glyph-name="r" unicode="r" horiz-adv-x="204" 
d="M111 504h81v-28c-68 0 -82 1 -89 -5c-10 -8 -12 -14 -12 -28v-443h-40v443c0 34 26 61 60 61z" />
    <glyph glyph-name="s" unicode="s" horiz-adv-x="273" 
d="M206 265c37 -18 37 -63 37 -63v-139c0 -33 -27 -63 -61 -63h-10h-70h-11c-33 0 -60 30 -60 63v118h40v-118c0 -13 9 -27 20 -31c4 -1 7 -2 11 -2h70c4 0 7 1 10 2c12 4 20 18 20 31v128c0 28 -14 38 -31 47c-30 16 -63 30 -100 48c-40 21 -40 50 -40 77v80
c0 34 27 64 60 64h11h60h10c33 0 61 -30 61 -64v-90h-41v90c0 14 -8 28 -20 32c-3 1 -6 2 -10 2h-60c-4 0 -7 -1 -11 -2c-11 -4 -20 -18 -20 -32v-80c0 -32 10 -37 31 -48c27 -16 71 -33 104 -50z" />
    <glyph glyph-name="t" unicode="t" horiz-adv-x="187" 
d="M139 30h40v-30h-40h-10c-34 0 -61 27 -61 61v413h-60v31h60v141h41v-141h60v-31h-60v-413c0 -14 8 -25 20 -29c3 -1 6 -2 10 -2z" />
    <glyph glyph-name="u" unicode="u" horiz-adv-x="309" 
d="M221 504h41v-475v-29h-141h-11c-33 0 -60 30 -60 63v441h40v-441c0 -13 9 -27 20 -31c4 -1 7 -2 11 -2h100v474z" />
    <glyph glyph-name="v" unicode="v" horiz-adv-x="268" 
d="M221 504h33l-91 -504h-25h-7h-28l-91 504h36l86 -480z" />
    <glyph glyph-name="w" unicode="w" horiz-adv-x="437" 
d="M383 504h37l-90 -504h-28h-8h-25l-56 391l-56 -391h-25h-7h-28l-91 504h38l84 -463l69 463v0h32h1l68 -463z" />
    <glyph glyph-name="x" unicode="x" horiz-adv-x="292" 
d="M279 0h-36l-100 221l-99 -221h-37l117 261l-5 11l-102 232h37l90 -197l88 197h37l-107 -239z" />
    <glyph glyph-name="y" unicode="y" horiz-adv-x="292" 
d="M242 504h38l-145 -665h-38l36 161h-14l-101 504h39l87 -444z" />
    <glyph glyph-name="z" unicode="z" horiz-adv-x="253" 
d="M235 504v-30l-178 -444h178v-30h-222v30v0l181 444h-161v30h202z" />
    <glyph glyph-name="circumflex" unicode="&#x2c6;" horiz-adv-x="317" 
d="M192 676l63 -96h-36l-61 66l-60 -66h-36l63 96h67z" />
    <glyph glyph-name="tilde" unicode="&#x2dc;" horiz-adv-x="311" 
d="M108 628l-34 -36l-18 16l40 43c13 16 34 17 50 4l44 -39c5 -4 11 -4 15 1l32 36l18 -16l-38 -44c-14 -15 -35 -17 -51 -3l-43 39c-5 3 -12 2 -15 -1z" />
    <glyph glyph-name="space" unicode=" " horiz-adv-x="187" 
 />
    <glyph glyph-name="acute" unicode="&#xb4;" horiz-adv-x="303" 
d="M94 580l63 96h61l-88 -96h-36z" />
    <glyph glyph-name="cedilla" unicode="&#xb8;" horiz-adv-x="377" 
d="M127 -3h40v-34h21c34 0 61 -28 61 -62s-27 -61 -61 -61h-61v31h51c3 0 7 0 10 2c12 4 20 15 20 28c0 14 -8 25 -20 29c-3 1 -7 2 -10 2h-51v65z" />
    <glyph glyph-name="grave" unicode="`" horiz-adv-x="303" 
d="M147 676l63 -96h-36l-88 96h61z" />
    <glyph glyph-name="caron" unicode="&#x2c7;" horiz-adv-x="318" 
d="M255 676l-63 -96h-67l-63 96h36l60 -66l61 66h36z" />
    <glyph glyph-name="bar" unicode="|" horiz-adv-x="227" 
d="M134 0h-41v706h41v-706z" />
    <glyph glyph-name="agrave" unicode="&#xe0;" horiz-adv-x="312" 
d="M155 676l63 -96h-36l-88 96h61zM206 507c34 0 61 -30 61 -64v-131v-30v-252v-30h-41h-120h-11c-33 0 -60 30 -60 63v189c0 33 27 60 60 60h11h120v131c0 14 -8 28 -20 32c-3 1 -6 2 -10 2v0h-80v0c-4 0 -7 -1 -10 -2c-12 -4 -21 -18 -21 -32v-70h-40v70c0 34 27 64 61 64
h10h80h1h9zM226 30v252h-120c-4 0 -7 -1 -11 -2c-11 -4 -20 -15 -20 -28v-189c0 -13 9 -27 20 -31c4 -1 7 -2 11 -2h120z" />
    <glyph glyph-name="aacute" unicode="&#xe1;" horiz-adv-x="312" 
d="M206 507c34 0 61 -30 61 -64v-131v-30v-252v-30h-41h-120h-11c-33 0 -60 30 -60 63v189c0 33 27 60 60 60h11h120v131c0 14 -8 28 -20 32c-3 1 -6 2 -10 2v0h-80v0c-4 0 -7 -1 -10 -2c-12 -4 -21 -18 -21 -32v-70h-40v70c0 34 27 64 61 64h10h80h1h9zM226 30v252h-120
c-4 0 -7 -1 -11 -2c-11 -4 -20 -15 -20 -28v-189c0 -13 9 -27 20 -31c4 -1 7 -2 11 -2h120zM94 580l63 96h61l-88 -96h-36z" />
    <glyph glyph-name="acircumflex" unicode="&#xe2;" horiz-adv-x="312" 
d="M190 676l63 -96h-36l-61 66l-60 -66h-36l63 96h67zM206 507c34 0 61 -30 61 -64v-131v-30v-252v-30h-41h-120h-11c-33 0 -60 30 -60 63v189c0 33 27 60 60 60h11h120v131c0 14 -8 28 -20 32c-3 1 -6 2 -10 2v0h-80v0c-4 0 -7 -1 -10 -2c-12 -4 -21 -18 -21 -32v-70h-40
v70c0 34 27 64 61 64h10h80h1h9zM226 30v252h-120c-4 0 -7 -1 -11 -2c-11 -4 -20 -15 -20 -28v-189c0 -13 9 -27 20 -31c4 -1 7 -2 11 -2h120z" />
    <glyph glyph-name="atilde" unicode="&#xe3;" horiz-adv-x="312" 
d="M108 628l-34 -36l-18 16l40 43c13 16 34 17 50 4l44 -39c5 -4 11 -4 15 1l32 36l18 -16l-38 -44c-14 -15 -35 -17 -51 -3l-43 39c-5 3 -12 2 -15 -1zM206 507c34 0 61 -30 61 -64v-131v-30v-252v-30h-41h-120h-11c-33 0 -60 30 -60 63v189c0 33 27 60 60 60h11h120v131
c0 14 -8 28 -20 32c-3 1 -6 2 -10 2v0h-80v0c-4 0 -7 -1 -10 -2c-12 -4 -21 -18 -21 -32v-70h-40v70c0 34 27 64 61 64h10h80h1h9zM226 30v252h-120c-4 0 -7 -1 -11 -2c-11 -4 -20 -15 -20 -28v-189c0 -13 9 -27 20 -31c4 -1 7 -2 11 -2h120z" />
    <glyph glyph-name="adieresis" unicode="&#xe4;" horiz-adv-x="312" 
d="M132 585h-41v89h41v-89zM229 585h-41v89h41v-89zM206 507c34 0 61 -30 61 -64v-131v-30v-252v-30h-41h-120h-11c-33 0 -60 30 -60 63v189c0 33 27 60 60 60h11h120v131c0 14 -8 28 -20 32c-3 1 -6 2 -10 2v0h-80v0c-4 0 -7 -1 -10 -2c-12 -4 -21 -18 -21 -32v-70h-40v70
c0 34 27 64 61 64h10h80h1h9zM226 30v252h-120c-4 0 -7 -1 -11 -2c-11 -4 -20 -15 -20 -28v-189c0 -13 9 -27 20 -31c4 -1 7 -2 11 -2h120z" />
    <glyph glyph-name="aring" unicode="&#xe5;" horiz-adv-x="312" 
d="M225 615c0 -37 -30 -66 -66 -66c-8 0 -30 3 -47 20c-6 6 -19 22 -19 47c0 37 30 66 66 66c37 0 66 -31 66 -67zM197 616c0 21 -17 39 -38 39c-22 -2 -39 -19 -39 -40c0 -14 8 -24 11 -28c8 -6 17 -11 28 -11c22 0 38 19 38 40zM206 507c34 0 61 -30 61 -64v-131v-30v-252
v-30h-41h-120h-11c-33 0 -60 30 -60 63v189c0 33 27 60 60 60h11h120v131c0 14 -8 28 -20 32c-3 1 -6 2 -10 2v0h-80v0c-4 0 -7 -1 -10 -2c-12 -4 -21 -18 -21 -32v-70h-40v70c0 34 27 64 61 64h10h80h1h9zM226 30v252h-120c-4 0 -7 -1 -11 -2c-11 -4 -20 -15 -20 -28v-189
c0 -13 9 -27 20 -31c4 -1 7 -2 11 -2h120z" />
    <glyph glyph-name="ring" unicode="&#x2da;" horiz-adv-x="331" 
d="M225 615c0 -37 -30 -66 -66 -66c-8 0 -30 3 -47 20c-6 6 -19 22 -19 47c0 37 30 66 66 66c37 0 66 -31 66 -67zM197 616c0 21 -17 39 -38 39c-22 -2 -39 -19 -39 -40c0 -14 8 -24 11 -28c8 -6 17 -11 28 -11c22 0 38 19 38 40z" />
    <glyph glyph-name="Aring" unicode="&#xc5;" horiz-adv-x="375" 
d="M306 1l-42 232h-158l-42 -232h-38l131 706h21h15h22l131 -706h-40zM112 263h147l-73 405zM253 817c0 -37 -30 -66 -66 -66c-8 0 -30 3 -47 20c-6 6 -19 22 -19 47c0 37 30 66 66 66c37 0 66 -31 66 -67zM225 818c0 21 -17 39 -38 39c-22 -2 -39 -19 -39 -40
c0 -14 8 -24 11 -28c8 -6 17 -11 28 -11c22 0 38 19 38 40z" />
    <glyph glyph-name="Agrave" unicode="&#xc0;" horiz-adv-x="375" 
d="M306 1l-42 232h-158l-42 -232h-38l131 706h21h15h22l131 -706h-40zM112 263h147l-73 405zM186 878l63 -96h-36l-88 96h61z" />
    <glyph glyph-name="Aacute" unicode="&#xc1;" horiz-adv-x="375" 
d="M306 1l-42 232h-158l-42 -232h-38l131 706h21h15h22l131 -706h-40zM112 263h147l-73 405zM125 782l63 96h61l-88 -96h-36z" />
    <glyph glyph-name="Acircumflex" unicode="&#xc2;" horiz-adv-x="375" 
d="M306 1l-42 232h-158l-42 -232h-38l131 706h21h15h22l131 -706h-40zM112 263h147l-73 405zM221 878l63 -96h-36l-61 66l-60 -66h-36l63 96h67z" />
    <glyph glyph-name="Atilde" unicode="&#xc3;" horiz-adv-x="375" 
d="M306 1l-42 232h-158l-42 -232h-38l131 706h21h15h22l131 -706h-40zM112 263h147l-73 405zM140 830l-34 -36l-18 16l40 43c13 16 34 17 50 4l44 -39c5 -4 11 -4 15 1l32 36l18 -16l-38 -44c-14 -15 -35 -17 -51 -3l-43 39c-5 3 -12 2 -15 -1z" />
    <glyph glyph-name="Adieresis" unicode="&#xc4;" horiz-adv-x="375" 
d="M146 785h-41v89h41v-89zM269 785h-41v89h41v-89zM306 1l-42 232h-158l-42 -232h-38l131 706h21h15h22l131 -706h-40zM112 263h147l-73 405z" />
    <glyph glyph-name="egrave" unicode="&#xe8;" 
d="M155 676l63 -96h-36l-88 96h61zM215 507c34 0 61 -30 61 -64v-161v-30h-41h-151v-189c0 -13 9 -27 20 -31c4 -1 7 -2 11 -2v0h80v0c4 0 7 1 10 2c12 4 20 18 20 31v0v109h41v-109v0c0 -33 -27 -63 -61 -63h-9h-1h-80h-2h-9c-33 0 -60 30 -60 63v189v30v161
c0 34 27 64 60 64h11h90h10zM84 282h151v161c0 14 -8 28 -20 32c-3 1 -6 2 -10 2h-90c-4 0 -7 -1 -11 -2c-11 -4 -20 -18 -20 -32v-161z" />
    <glyph glyph-name="eacute" unicode="&#xe9;" 
d="M215 507c34 0 61 -30 61 -64v-161v-30h-41h-151v-189c0 -13 9 -27 20 -31c4 -1 7 -2 11 -2v0h80v0c4 0 7 1 10 2c12 4 20 18 20 31v0v109h41v-109v0c0 -33 -27 -63 -61 -63h-9h-1h-80h-2h-9c-33 0 -60 30 -60 63v189v30v161c0 34 27 64 60 64h11h90h10zM84 282h151v161
c0 14 -8 28 -20 32c-3 1 -6 2 -10 2h-90c-4 0 -7 -1 -11 -2c-11 -4 -20 -18 -20 -32v-161zM94 580l63 96h61l-88 -96h-36z" />
    <glyph glyph-name="ecircumflex" unicode="&#xea;" 
d="M190 676l63 -96h-36l-61 66l-60 -66h-36l63 96h67zM215 507c34 0 61 -30 61 -64v-161v-30h-41h-151v-189c0 -13 9 -27 20 -31c4 -1 7 -2 11 -2v0h80v0c4 0 7 1 10 2c12 4 20 18 20 31v0v109h41v-109v0c0 -33 -27 -63 -61 -63h-9h-1h-80h-2h-9c-33 0 -60 30 -60 63v189v30
v161c0 34 27 64 60 64h11h90h10zM84 282h151v161c0 14 -8 28 -20 32c-3 1 -6 2 -10 2h-90c-4 0 -7 -1 -11 -2c-11 -4 -20 -18 -20 -32v-161z" />
    <glyph glyph-name="edieresis" unicode="&#xeb;" 
d="M132 585h-41v89h41v-89zM229 585h-41v89h41v-89zM215 507c34 0 61 -30 61 -64v-161v-30h-41h-151v-189c0 -13 9 -27 20 -31c4 -1 7 -2 11 -2v0h80v0c4 0 7 1 10 2c12 4 20 18 20 31v0v109h41v-109v0c0 -33 -27 -63 -61 -63h-9h-1h-80h-2h-9c-33 0 -60 30 -60 63v189v30
v161c0 34 27 64 60 64h11h90h10zM84 282h151v161c0 14 -8 28 -20 32c-3 1 -6 2 -10 2h-90c-4 0 -7 -1 -11 -2c-11 -4 -20 -18 -20 -32v-161z" />
    <glyph glyph-name="igrave" unicode="&#xec;" horiz-adv-x="146" 
d="M92 504v-504h-41v504h41zM72 676l63 -96h-36l-88 96h61z" />
    <glyph glyph-name="iacute" unicode="&#xed;" horiz-adv-x="146" 
d="M92 504v-504h-41v504h41zM11 580l63 96h61l-88 -96h-36z" />
    <glyph glyph-name="icircumflex" unicode="&#xee;" horiz-adv-x="146" 
d="M92 504v-504h-41v504h41zM107 676l63 -96h-36l-61 66l-60 -66h-36l63 96h67z" />
    <glyph glyph-name="idieresis" unicode="&#xef;" horiz-adv-x="143" 
d="M92 0v504h-41v-504h41zM43 585h-41v89h41v-89zM140 585h-41v89h41v-89z" />
    <glyph glyph-name="ntilde" unicode="&#xf1;" horiz-adv-x="333" 
d="M247 507c23 0 41 -21 41 -43v-464h-41v464c0 5 -4 13 -10 13h-131c-5 0 -10 -8 -10 -13v-464h-40v464c0 22 18 43 40 43h151zM119 628l-34 -36l-18 16l40 43c13 16 34 17 50 4l44 -39c5 -4 11 -4 15 1l32 36l18 -16l-38 -44c-14 -15 -35 -17 -51 -3l-43 39
c-5 3 -12 2 -15 -1z" />
    <glyph glyph-name="ograve" unicode="&#xf2;" 
d="M155 676l63 -96h-36l-88 96h61zM220 506c30 -4 53 -32 53 -63v-380c0 -33 -27 -63 -61 -63h-111l-8 1c-29 3 -52 32 -52 62v380c0 34 27 64 60 64h111zM112 30h90c4 0 7 1 10 2c12 4 20 18 20 31v380c0 14 -8 28 -20 32c-3 1 -6 2 -10 2h-90c-4 0 -7 -1 -11 -2
c-11 -4 -20 -18 -20 -32v-380c0 -13 9 -27 20 -31c4 -1 7 -2 11 -2z" />
    <glyph glyph-name="oacute" unicode="&#xf3;" 
d="M220 506c30 -4 53 -32 53 -63v-380c0 -33 -27 -63 -61 -63h-111l-8 1c-29 3 -52 32 -52 62v380c0 34 27 64 60 64h111zM112 30h90c4 0 7 1 10 2c12 4 20 18 20 31v380c0 14 -8 28 -20 32c-3 1 -6 2 -10 2h-90c-4 0 -7 -1 -11 -2c-11 -4 -20 -18 -20 -32v-380
c0 -13 9 -27 20 -31c4 -1 7 -2 11 -2zM94 580l63 96h61l-88 -96h-36z" />
    <glyph glyph-name="ocircumflex" unicode="&#xf4;" 
d="M190 676l63 -96h-36l-61 66l-60 -66h-36l63 96h67zM220 506c30 -4 53 -32 53 -63v-380c0 -33 -27 -63 -61 -63h-111l-8 1c-29 3 -52 32 -52 62v380c0 34 27 64 60 64h111zM112 30h90c4 0 7 1 10 2c12 4 20 18 20 31v380c0 14 -8 28 -20 32c-3 1 -6 2 -10 2h-90
c-4 0 -7 -1 -11 -2c-11 -4 -20 -18 -20 -32v-380c0 -13 9 -27 20 -31c4 -1 7 -2 11 -2z" />
    <glyph glyph-name="otilde" unicode="&#xf5;" 
d="M109 628l-34 -36l-18 16l40 43c13 16 34 17 50 4l44 -39c5 -4 11 -4 15 1l32 36l18 -16l-38 -44c-14 -15 -35 -17 -51 -3l-43 39c-5 3 -12 2 -15 -1zM220 506c30 -4 53 -32 53 -63v-380c0 -33 -27 -63 -61 -63h-111l-8 1c-29 3 -52 32 -52 62v380c0 34 27 64 60 64h111z
M112 30h90c4 0 7 1 10 2c12 4 20 18 20 31v380c0 14 -8 28 -20 32c-3 1 -6 2 -10 2h-90c-4 0 -7 -1 -11 -2c-11 -4 -20 -18 -20 -32v-380c0 -13 9 -27 20 -31c4 -1 7 -2 11 -2z" />
    <glyph glyph-name="odieresis" unicode="&#xf6;" 
d="M132 585h-41v89h41v-89zM229 585h-41v89h41v-89zM220 506c30 -4 53 -32 53 -63v-380c0 -33 -27 -63 -61 -63h-111l-8 1c-29 3 -52 32 -52 62v380c0 34 27 64 60 64h111zM112 30h90c4 0 7 1 10 2c12 4 20 18 20 31v380c0 14 -8 28 -20 32c-3 1 -6 2 -10 2h-90
c-4 0 -7 -1 -11 -2c-11 -4 -20 -18 -20 -32v-380c0 -13 9 -27 20 -31c4 -1 7 -2 11 -2z" />
    <glyph glyph-name="yacute" unicode="&#xfd;" horiz-adv-x="292" 
d="M242 504h38l-145 -665h-38l36 161h-14l-101 504h39l87 -444zM84 580l63 96h61l-88 -96h-36z" />
    <glyph glyph-name="ydieresis" unicode="&#xff;" horiz-adv-x="292" 
d="M121 585h-41v89h41v-89zM218 585h-41v89h41v-89zM242 504h38l-145 -665h-38l36 161h-14l-101 504h39l87 -444z" />
    <glyph glyph-name="ugrave" unicode="&#xf9;" horiz-adv-x="321" 
d="M159 676l63 -96h-36l-88 96h61zM228 504h41v-474v-30h-141h-11c-33 0 -60 30 -60 63v441h40v-441c0 -13 9 -27 20 -31c4 -1 7 -2 11 -2h100v474z" />
    <glyph glyph-name="uacute" unicode="&#xfa;" horiz-adv-x="321" 
d="M228 504h41v-474v-30h-141h-11c-33 0 -60 30 -60 63v441h40v-441c0 -13 9 -27 20 -31c4 -1 7 -2 11 -2h100v474zM98 580l63 96h61l-88 -96h-36z" />
    <glyph glyph-name="ucircumflex" unicode="&#xfb;" horiz-adv-x="321" 
d="M194 676l63 -96h-36l-61 66l-60 -66h-36l63 96h67zM228 504h41v-474v-30h-141h-11c-33 0 -60 30 -60 63v441h40v-441c0 -13 9 -27 20 -31c4 -1 7 -2 11 -2h100v474z" />
    <glyph glyph-name="udieresis" unicode="&#xfc;" horiz-adv-x="321" 
d="M132 585h-41v89h41v-89zM229 585h-41v89h41v-89zM228 504h41v-474v-30h-141h-11c-33 0 -60 30 -60 63v441h40v-441c0 -13 9 -27 20 -31c4 -1 7 -2 11 -2h100v474z" />
    <glyph glyph-name="ccedilla" unicode="&#xe7;" 
d="M268 353h-41v90c0 14 -8 28 -20 32c-3 1 -6 2 -10 2h-80c-4 0 -7 -1 -11 -2c-11 -4 -20 -18 -20 -32v-380c0 -13 9 -27 20 -31c4 -1 7 -2 11 -2h80c4 0 7 1 10 2c12 4 20 18 20 31v128h41v-128c0 -33 -27 -63 -61 -63h-10h-80h-11c-33 0 -60 30 -60 63v380
c0 34 27 64 60 64h11h80h10c34 0 61 -30 61 -64v-90zM112 0h40v-34h21c34 0 61 -28 61 -62s-27 -61 -61 -61h-61v31h51c3 0 7 0 10 2c12 4 20 15 20 28c0 14 -8 25 -20 29c-3 1 -7 2 -10 2h-51v65z" />
    <glyph glyph-name="Ntilde" unicode="&#xd1;" horiz-adv-x="396" 
d="M299 706h40v-706h-34h-6h-41l-161 669v-669h-41v706h32h9h31l171 -681v681zM150 830l-34 -36l-18 16l40 43c13 16 34 17 50 4l44 -39c5 -4 11 -4 15 1l32 36l18 -16l-38 -44c-14 -15 -35 -17 -51 -3l-43 39c-5 3 -12 2 -15 -1z" />
    <glyph glyph-name="Ograve" unicode="&#xd2;" horiz-adv-x="396" 
d="M247 709c50 0 91 -44 91 -94v-521c0 -50 -41 -94 -91 -94h-101c-50 0 -91 44 -91 94v521c0 50 41 94 91 94h101zM247 30c30 0 51 34 51 64v521c0 30 -21 64 -51 64h-101c-30 0 -50 -34 -50 -64v-521c0 -30 20 -64 50 -64h101zM197 878l63 -96h-36l-88 96h61z" />
    <glyph glyph-name="Oacute" unicode="&#xd3;" horiz-adv-x="396" 
d="M247 709c50 0 91 -44 91 -94v-521c0 -50 -41 -94 -91 -94h-101c-50 0 -91 44 -91 94v521c0 50 41 94 91 94h101zM247 30c30 0 51 34 51 64v521c0 30 -21 64 -51 64h-101c-30 0 -50 -34 -50 -64v-521c0 -30 20 -64 50 -64h101zM136 782l63 96h61l-88 -96h-36z" />
    <glyph glyph-name="Ocircumflex" unicode="&#xd4;" horiz-adv-x="396" 
d="M247 709c50 0 91 -44 91 -94v-521c0 -50 -41 -94 -91 -94h-101c-50 0 -91 44 -91 94v521c0 50 41 94 91 94h101zM247 30c30 0 51 34 51 64v521c0 30 -21 64 -51 64h-101c-30 0 -50 -34 -50 -64v-521c0 -30 20 -64 50 -64h101zM231 878l63 -96h-36l-61 66l-60 -66h-36
l63 96h67z" />
    <glyph glyph-name="Otilde" unicode="&#xd5;" horiz-adv-x="396" 
d="M247 709c50 0 91 -44 91 -94v-521c0 -50 -41 -94 -91 -94h-101c-50 0 -91 44 -91 94v521c0 50 41 94 91 94h101zM247 30c30 0 51 34 51 64v521c0 30 -21 64 -51 64h-101c-30 0 -50 -34 -50 -64v-521c0 -30 20 -64 50 -64h101zM150 830l-34 -36l-18 16l40 43
c13 16 34 17 50 4l44 -39c5 -4 11 -4 15 1l32 36l18 -16l-38 -44c-14 -15 -35 -17 -51 -3l-43 39c-5 3 -12 2 -15 -1z" />
    <glyph glyph-name="Odieresis" unicode="&#xd6;" horiz-adv-x="396" 
d="M148 785h-41v89h41v-89zM271 785h-41v89h41v-89zM247 709c50 0 91 -44 91 -94v-521c0 -50 -41 -94 -91 -94h-101c-50 0 -91 44 -91 94v521c0 50 41 94 91 94h101zM247 30c30 0 51 34 51 64v521c0 30 -21 64 -51 64h-101c-30 0 -50 -34 -50 -64v-521c0 -30 20 -64 50 -64
h101z" />
    <glyph glyph-name="Ugrave" unicode="&#xd9;" horiz-adv-x="396" 
d="M197 878l63 -96h-36l-88 96h61zM293 706h41v-612c0 -50 -41 -94 -91 -94h-91c-50 0 -91 44 -91 94v612h41v-612c0 -30 20 -64 50 -64h91c30 0 50 34 50 64v612z" />
    <glyph glyph-name="Uacute" unicode="&#xda;" horiz-adv-x="396" 
d="M293 706h41v-612c0 -50 -41 -94 -91 -94h-91c-50 0 -91 44 -91 94v612h41v-612c0 -30 20 -64 50 -64h91c30 0 50 34 50 64v612zM136 782l63 96h61l-88 -96h-36z" />
    <glyph glyph-name="Ucircumflex" unicode="&#xdb;" horiz-adv-x="396" 
d="M231 878l63 -96h-36l-61 66l-60 -66h-36l63 96h67zM293 706h41v-612c0 -50 -41 -94 -91 -94h-91c-50 0 -91 44 -91 94v612h41v-612c0 -30 20 -64 50 -64h91c30 0 50 34 50 64v612z" />
    <glyph glyph-name="Udieresis" unicode="&#xdc;" horiz-adv-x="396" 
d="M157 785h-41v89h41v-89zM280 785h-41v89h41v-89zM293 706h41v-612c0 -50 -41 -94 -91 -94h-91c-50 0 -91 44 -91 94v612h41v-612c0 -30 20 -64 50 -64h91c30 0 50 34 50 64v612z" />
    <glyph glyph-name="Yacute" unicode="&#xdd;" horiz-adv-x="354" 
d="M295 706h40l-136 -393v-313h-40v313l-137 393h41l116 -335zM115 782l63 96h61l-88 -96h-36z" />
    <glyph glyph-name="Ccedilla" unicode="&#xc7;" horiz-adv-x="375" 
d="M328 484h-41v131c0 30 -20 64 -50 64h-91c-30 0 -50 -34 -50 -64v-524c0 -30 20 -57 50 -57h91c30 0 50 27 50 57v151h41v-151c0 -49 -39 -91 -87 -91h-95c-50 0 -91 41 -91 91v524c0 50 41 94 91 94h91c50 0 91 -44 91 -94v-131zM136 1h40v-34h21c34 0 61 -28 61 -62
s-27 -61 -61 -61h-61v31h51c3 0 7 0 10 2c12 4 20 15 20 28c0 14 -8 25 -20 29c-3 1 -7 2 -10 2h-51v65z" />
    <glyph glyph-name="Egrave" unicode="&#xc8;" horiz-adv-x="333" 
d="M104 30h216v-30h-216h-10h-31v363v30v283v10v20h253v-30h-212v-283h171v-30h-171v-333zM165 878l63 -96h-36l-88 96h61z" />
    <glyph glyph-name="Eacute" unicode="&#xc9;" horiz-adv-x="333" 
d="M104 30h216v-30h-216h-10h-31v363v30v283v10v20h253v-30h-212v-283h171v-30h-171v-333zM104 782l63 96h61l-88 -96h-36z" />
    <glyph glyph-name="Ecircumflex" unicode="&#xca;" horiz-adv-x="333" 
d="M104 30h216v-30h-216h-10h-31v363v30v283v10v20h253v-30h-212v-283h171v-30h-171v-333zM200 878l63 -96h-36l-61 66l-60 -66h-36l63 96h67z" />
    <glyph glyph-name="Edieresis" unicode="&#xcb;" horiz-adv-x="333" 
d="M146 785h-41v89h41v-89zM269 785h-41v89h41v-89zM104 30h216v-30h-216h-10h-31v363v30v283v10v20h253v-30h-212v-283h171v-30h-171v-333z" />
    <glyph glyph-name="Igrave" unicode="&#xcc;" horiz-adv-x="167" 
d="M106 706v-706h-41v706h41zM83 878l63 -96h-36l-88 96h61z" />
    <glyph glyph-name="Iacute" unicode="&#xcd;" horiz-adv-x="167" 
d="M106 706v-706h-41v706h41zM22 782l63 96h61l-88 -96h-36z" />
    <glyph glyph-name="Icircumflex" unicode="&#xce;" horiz-adv-x="167" 
d="M106 706v-706h-41v706h41zM117 878l63 -96h-36l-61 66l-60 -66h-36l63 96h67z" />
    <glyph glyph-name="Idieresis" unicode="&#xcf;" horiz-adv-x="167" 
d="M43 785h-41v89h41v-89zM166 785h-41v89h41v-89zM106 706v-706h-41v706h41z" />
    <glyph glyph-name="dotlessi" unicode="&#x131;" horiz-adv-x="146" 
d="M92 504v-504h-41v504h41z" />
    <glyph glyph-name="Ydieresis" unicode="&#x178;" horiz-adv-x="354" 
d="M146 785h-41v89h41v-89zM269 785h-41v89h41v-89zM295 706h40l-136 -393v-313h-40v313l-137 393h41l116 -335z" />
    <glyph glyph-name="Zcaron" unicode="&#x17d;" horiz-adv-x="354" 
d="M319 30v-30h-283v30l232 646h-201v30h242v-30v0l-232 -646h242zM273 878l-63 -96h-67l-63 96h36l60 -66l61 66h36z" />
    <glyph glyph-name="zcaron" unicode="&#x17e;" horiz-adv-x="292" 
d="M257 504v-30l-178 -444h178v-30h-222v30v0l181 444h-161v30h202zM243 676l-63 -96h-67l-63 96h36l60 -66l61 66h36z" />
    <glyph glyph-name="Scaron" unicode="&#x160;" horiz-adv-x="375" 
d="M277 331c52 -36 53 -73 53 -99v-138c0 -50 -40 -93 -90 -94v0h-104v0c-49 1 -89 44 -89 94v138h41v-138c0 -30 20 -64 50 -64h101c30 0 51 34 51 64v138c0 39 -17 52 -50 76c-37 28 -81 60 -122 88c-45 30 -61 58 -61 98v121c0 50 40 94 90 94v0h82v0v0h1v0
c50 -1 90 -44 90 -94v-141h-41v141c0 30 -20 64 -50 64h-82v0c-30 0 -50 -34 -50 -64v-111c0 -49 19 -60 51 -82c29 -20 96 -69 129 -91zM284 878l-63 -96h-67l-63 96h36l60 -66l61 66h36z" />
    <glyph glyph-name="scaron" unicode="&#x161;" horiz-adv-x="273" 
d="M206 265c37 -18 37 -63 37 -63v-139c0 -33 -27 -63 -61 -63h-10h-70h-11c-33 0 -60 30 -60 63v118h40v-118c0 -13 9 -27 20 -31c4 -1 7 -2 11 -2h70c4 0 7 1 10 2c12 4 20 18 20 31v128c0 28 -14 38 -31 47c-30 16 -63 30 -100 48c-40 21 -40 50 -40 77v80
c0 34 27 64 60 64h11h60h10c33 0 61 -30 61 -64v-90h-41v90c0 14 -8 28 -20 32c-3 1 -6 2 -10 2h-60c-4 0 -7 -1 -11 -2c-11 -4 -20 -18 -20 -32v-80c0 -32 10 -37 31 -48c27 -16 71 -33 104 -50zM233 676l-63 -96h-67l-63 96h36l60 -66l61 66h36z" />
    <glyph glyph-name="A" unicode="A" horiz-adv-x="375" 
d="M306 1l-42 232h-158l-42 -232h-38l131 706h21h15h22l131 -706h-40zM112 263h147l-73 405z" />
    <glyph glyph-name="zero" unicode="0" horiz-adv-x="354" 
d="M228 709c50 0 91 -44 91 -94v-524c0 -50 -41 -94 -91 -94h-101c-50 0 -91 44 -91 94v524c0 50 41 94 91 94h101zM228 27c30 0 51 34 51 64v524c0 30 -21 64 -51 64h-101c-30 0 -50 -34 -50 -64v-524c0 -30 20 -64 50 -64h101z" />
    <glyph glyph-name="one" unicode="1" horiz-adv-x="354" 
d="M169 706h41v-706h-41v656l-111 -71v40z" />
    <glyph glyph-name="two" unicode="2" horiz-adv-x="354" 
d="M77 30h231v-30h-272v30v63c0 25 12 53 48 105c26 37 116 170 135 200s40 43 40 106v111c0 30 -20 61 -51 61h-61c-30 0 -50 -31 -50 -61v-141h-41v141c0 50 41 91 91 91h61c50 0 91 -41 91 -91v-121c0 -40 -11 -68 -51 -126c-28 -40 -102 -149 -130 -192
c-24 -33 -41 -56 -41 -83v-63z" />
    <glyph glyph-name="three" unicode="3" horiz-adv-x="354" 
d="M304 313v0v-222c0 -50 -40 -91 -91 -91h-81c-50 0 -91 41 -91 91v121h41v-121c0 -30 20 -61 50 -61h81c31 0 51 31 51 61v212c0 30 -20 60 -51 60h-92v30h82c30 0 50 31 50 61v161c0 30 -20 61 -50 61v0v0v0h-61c-30 0 -50 -31 -50 -61v-111h-41v111c0 50 41 91 91 91h60
h1h2v0c49 -1 89 -41 89 -91v-161c0 -30 -15 -56 -36 -72c25 -14 42 -40 46 -69z" />
    <glyph glyph-name="four" unicode="4" horiz-adv-x="354" 
d="M344 262v-30h-81v-232h-40v232h-202v30l182 444h20h21h19v-444h81zM62 262h161v393z" />
    <glyph glyph-name="five" unicode="5" horiz-adv-x="354" 
d="M218 434c50 0 91 -41 91 -91v-252c0 -50 -41 -91 -91 -91h-71v0c-50 0 -91 41 -91 91v131h41v-131c0 -30 20 -61 50 -61h71c30 0 50 31 50 61v252c0 30 -20 60 -50 60h-111h-40v31v242v30h232v-30h-192v-242h111z" />
    <glyph glyph-name="six" unicode="6" horiz-adv-x="354" 
d="M307 524h-41v91c0 30 -20 61 -50 61h-71c-30 0 -50 -31 -50 -61v-197c14 10 32 16 50 16h71c50 0 91 -41 91 -91v-252c0 -50 -41 -91 -91 -91h-71v0c-50 0 -91 41 -91 91v131v403h1c5 46 43 81 90 81h71c50 0 91 -41 91 -91v-91zM145 403c-30 0 -50 -30 -50 -60v-121
v-131c0 -30 20 -61 50 -61h71c30 0 50 31 50 61v252c0 30 -20 60 -50 60h-71z" />
    <glyph glyph-name="seven" unicode="7" horiz-adv-x="354" 
d="M54 706h263v-30l-152 -676h-40l151 676h-222v30z" />
    <glyph glyph-name="eight" unicode="8" horiz-adv-x="354" 
d="M267 400c27 -16 46 -46 46 -79v-230c0 -50 -41 -91 -91 -91h-91v0c-50 0 -91 41 -91 91v230c0 33 19 63 47 79c-22 16 -36 42 -36 72v143c0 50 40 91 90 91h71c50 0 91 -41 91 -91v-143c0 -30 -15 -56 -36 -72zM91 615v-143c0 -30 20 -61 50 -61h71c30 0 50 31 50 61v143
c0 30 -20 61 -50 61h-71c-30 0 -50 -31 -50 -61zM222 30c30 0 50 31 50 61v230c0 30 -20 60 -50 60h-10h-71h-10c-30 0 -50 -30 -50 -60v-230c0 -30 20 -61 50 -61h91z" />
    <glyph glyph-name="nine" unicode="9" horiz-adv-x="354" 
d="M217 706c50 0 91 -41 91 -91v-302v-222c0 -47 -36 -85 -81 -90v-1h-91v0c-50 0 -90 41 -90 91v101h40v-101c0 -30 20 -61 50 -61h81c30 0 50 31 50 61v217c-14 -10 -31 -16 -50 -16h-91c-50 0 -91 41 -91 91v232c0 50 41 91 91 91h91zM217 323c30 0 50 30 50 60v232
c0 30 -20 61 -50 61h-91c-30 0 -50 -31 -50 -61v-232c0 -30 20 -60 50 -60h91z" />
    <glyph glyph-name="OE" unicode="&#x152;" horiz-adv-x="583" 
d="M383 30h176v-30h-176c-29 0 -54 13 -71 34c-16 -21 -42 -34 -70 -34h-101c-50 0 -91 41 -91 91v524c0 50 41 91 91 91h101c28 0 54 -13 70 -34c17 21 42 34 71 34h161v-30h-161c-30 0 -51 -31 -51 -61v-222h192v-30h-192v-272c0 -30 21 -61 51 -61zM242 30
c30 0 50 31 50 61v524c0 30 -20 61 -50 61h-101c-31 0 -51 -31 -51 -61v-524c0 -30 20 -61 51 -61h101z" />
    <glyph glyph-name="AE" unicode="&#xc6;" horiz-adv-x="566" 
d="M330 30h216v-30h-216h-10h-31v353h-136l-91 -353h-35l184 706h2h30h46h106h147v-30h-147h-65v-293h171v-30h-171v-323zM160 383h129v293h-53z" />
    <glyph glyph-name="ae" unicode="&#xe6;" horiz-adv-x="496" 
d="M397 504c33 0 60 -27 60 -61v-161v-30h-40h-151v-192c0 -13 8 -24 20 -28c3 -1 6 -2 10 -2v0h81v0c3 0 7 1 10 2c11 4 20 15 20 28v111h40v-111v0c0 -33 -27 -60 -60 -60h-8h-2h-81h-2h-8c-16 0 -30 6 -40 15c-11 -9 -25 -15 -41 -15h-10h-90h-11c-33 0 -60 27 -60 60
v192c0 33 27 60 60 60h11h120v131c0 14 -8 25 -20 29c-3 1 -6 2 -10 2v0h-80v0c-4 0 -7 -1 -10 -2c-12 -4 -21 -15 -21 -29v-70h-40v70c0 34 27 61 61 61h10h80h10c16 0 30 -6 41 -16c10 10 24 16 40 16h10h91h10zM225 60v192v30h-120c-4 0 -7 -1 -11 -2
c-11 -4 -20 -15 -20 -28v-192c0 -13 9 -24 20 -28c4 -1 7 -2 11 -2h90c4 0 7 1 10 2c12 4 20 15 20 28zM266 282h151v161c0 14 -8 25 -20 29c-3 1 -7 2 -10 2h-91c-4 0 -7 -1 -10 -2c-12 -4 -20 -15 -20 -29v-131v-30z" />
    <glyph glyph-name="oe" unicode="&#x153;" horiz-adv-x="503" 
d="M404 504c33 0 60 -27 60 -61v-161v-30h-40h-151v-192c0 -13 8 -24 20 -28c3 -1 6 -2 10 -2v0h81v0c3 0 7 1 10 2c11 4 20 15 20 28v111h40v-111v0c0 -33 -27 -60 -60 -60h-9h-1h-81h-2h-8c-16 0 -30 6 -40 15c-11 -9 -25 -15 -41 -15h-40h-71h-8v1c-29 3 -52 29 -52 59
v383c0 34 27 61 60 61h41h70h8v-1c13 -1 24 -7 33 -15c10 10 24 16 40 16h10h91h10zM232 60v192v30v161c0 14 -8 25 -20 29c-3 1 -6 2 -10 2h-60h-30c-4 0 -7 -1 -11 -2c-11 -4 -20 -15 -20 -29v-383c0 -13 9 -24 20 -28c4 -1 7 -2 11 -2h60h30c4 0 7 1 10 2
c12 4 20 15 20 28zM273 282h151v161c0 14 -8 25 -20 29c-3 1 -7 2 -10 2h-91c-4 0 -7 -1 -10 -2c-12 -4 -20 -15 -20 -29v-161z" />
    <glyph glyph-name="Euro" unicode="&#x20ac;" horiz-adv-x="403" 
d="M348 484h-40v131c0 30 -21 61 -51 61h-91c-30 0 -50 -31 -50 -61v-171h155v-31h-155v-90h155v-31h-155v-201c0 -30 20 -61 50 -61h91c30 0 51 31 51 61v151h40v-151c0 -49 -38 -89 -86 -91v0h-96c-50 0 -90 41 -90 91v201h-60v31h60v90h-60v31h60v171c0 50 40 91 90 91
h91c50 0 91 -41 91 -91v-131z" />
    <glyph glyph-name="numbersign" unicode="#" horiz-adv-x="515" 
d="M493 424h-145l-11 -121h136v-31h-138l-24 -272h-40l23 272h-90l-24 -272h-40l23 272h-144v31h147l10 121h-137v30h140l21 252h41l-22 -252h91l22 252h40l-22 -252h143v-30zM297 303l10 121h-90l-11 -121h91z" />
    <glyph glyph-name="exclam" unicode="!" horiz-adv-x="179" 
d="M91 706h40v-514h-40v514zM91 0v91h40v-91h-40z" />
    <glyph glyph-name="exclamdown" unicode="&#xa1;" horiz-adv-x="179" 
d="M53 0v514h40v-514h-40zM53 706h40v-91h-40v91z" />
    <glyph glyph-name="fi" unicode="&#xfb01;" horiz-adv-x="323" 
d="M230 645h40v-80h-40v80zM230 504h30h10v-504h-40v474h-111v-474h-41v474h-60v30h60v141c0 34 28 61 61 61h10h40v-30h-40c-3 0 -7 -1 -10 -2c-12 -4 -20 -15 -20 -29v-141h111z" />
    <glyph glyph-name="fl" unicode="&#xfb02;" horiz-adv-x="315" 
d="M253 706h10v-706h-40v676h-71c-3 0 -7 -1 -10 -2c-12 -4 -20 -15 -20 -29v-141h60v-30h-60v-474h-41v474h-60v30h60v141c0 34 28 61 61 61h10h71h30z" />
    <glyph glyph-name="dollar" unicode="$" horiz-adv-x="369" 
d="M273 330c52 -36 54 -73 54 -98v-142c0 -50 -41 -90 -91 -90h-41v-71h-29v71h-31c-50 0 -91 40 -91 90v142h40v-142c0 -30 21 -60 51 -60h101c30 0 50 30 50 60v142c0 39 -16 52 -49 76c-38 28 -82 60 -122 87c-45 31 -62 58 -62 99v121c0 50 41 91 91 91h22v50h29v-50h11
c50 0 90 -41 90 -91v-141h-40v141c0 30 -20 60 -50 60h-62c-30 0 -50 -30 -50 -60v-111c0 -50 18 -60 51 -82c29 -20 96 -69 128 -92z" />
    <glyph glyph-name="slash" unicode="/" horiz-adv-x="344" 
d="M267 706h40l-232 -706h-40z" />
    <glyph glyph-name="quotedbl" unicode="&#x22;" horiz-adv-x="216" 
d="M44 504v202h40v-202h-40zM135 706h40v-202h-40v202z" />
    <glyph glyph-name="percent" unicode="%" horiz-adv-x="572" 
d="M401 706h41l-283 -706h-40zM505 373c23 0 41 -18 41 -40v-91v-40v-162c0 -22 -18 -40 -41 -40h-20h-60h-21c-22 0 -40 18 -40 40v162v40v91c0 22 18 40 40 40h21h60h20zM505 202v40v91c0 5 -4 10 -10 10h-10h-60h-10c-6 0 -11 -5 -11 -10v-91v-40v-162c0 -5 5 -10 11 -10
h10h60h10c6 0 10 5 10 10v162zM162 333h-20h-61h-20c-22 0 -40 18 -40 40v91v40v162c0 22 18 40 40 40h20h61h20c23 0 41 -18 41 -40v-162v-40v-91c0 -22 -18 -40 -41 -40zM81 363h61h10c6 0 10 5 10 10v91v40v162c0 5 -4 10 -10 10h-10h-61h-10c-5 0 -10 -5 -10 -10v-162
v-40v-91c0 -5 5 -10 10 -10h10z" />
    <glyph glyph-name="ampersand" unicode="&#x26;" horiz-adv-x="395" 
d="M148 393h223v-30h-61v-272c0 -50 -41 -91 -91 -91h-81c-50 0 -91 41 -91 91v222h1c3 29 20 55 45 69c-21 16 -35 42 -35 72v161c0 49 38 89 87 91v0h3h11h50c50 0 91 -41 91 -91v-111h-41v111c0 30 -20 61 -50 61h-61v0v0v0c-30 0 -50 -31 -50 -61v-161
c0 -30 20 -61 50 -61zM269 91v272h-131c-31 0 -51 -30 -51 -60v-212c0 -30 20 -61 51 -61h81c30 0 50 31 50 61z" />
    <glyph glyph-name="quotesingle" unicode="'" horiz-adv-x="118" 
d="M62 706h46l-35 -202h-32z" />
    <glyph glyph-name="question" unicode="?" horiz-adv-x="359" 
d="M176 0v91h40v-91h-40zM227 706c50 0 91 -41 91 -91v-121s-1 -30 -11 -60c-10 -31 -71 -114 -86 -139c-8 -14 -5 -26 -5 -42v-71h-40v71c0 36 1 53 13 69c13 18 67 91 77 112c11 20 11 60 11 60v121c0 30 -20 61 -50 61h-61c-31 0 -51 -31 -51 -61v-141h-40v141
c0 50 41 91 91 91h61z" />
    <glyph glyph-name="germandbls" unicode="&#xdf;" horiz-adv-x="353" 
d="M258 442c28 -15 47 -45 47 -79v-272c0 -50 -41 -91 -91 -91h-81v30h81c30 0 50 31 50 61v272c0 30 -20 61 -50 61h-92v30h81c30 0 51 30 51 60v101c0 30 -21 61 -51 61v0v0v0h-60c-31 0 -51 -31 -51 -61v-615h-40v615c0 50 41 91 91 91h54h6h1v0c50 0 90 -41 90 -91v-101
c0 -29 -14 -55 -36 -72z" />
    <glyph glyph-name="sterling" unicode="&#xa3;" horiz-adv-x="420" 
d="M118 30h282v-30h-383v30h60v5v0v288h-60v30h60v262c0 50 41 91 91 91v0h71v0c50 0 91 -41 91 -91v-121h-41v121c0 30 -20 61 -50 61v0h-71v0c-30 0 -50 -31 -50 -61v-262h171v-30h-171v-293v0v0z" />
    <glyph glyph-name="plus" unicode="+" horiz-adv-x="549" 
d="M295 97h-41v180h-170v41h170v180h41v-180h170v-41h-170v-180z" />
    <glyph glyph-name="hyphen" unicode="-" horiz-adv-x="247" 
d="M212 272h-177v41h177v-41z" />
    <glyph glyph-name="equal" unicode="=" horiz-adv-x="528" 
d="M444 335h-377v41h377v-41zM444 207h-377v41h377v-41z" />
    <glyph glyph-name="section" unicode="&#xa7;" horiz-adv-x="317" 
d="M271 91v0v0v0c0 -50 -40 -91 -90 -91h-62c-47 0 -85 36 -90 81h-1v19v0v71h41v-80h-1v0h1c0 -30 20 -61 50 -61h62c28 0 47 27 50 54v16v0v60c0 50 -19 60 -51 82c-29 20 -79 57 -112 80c-41 27 -52 81 -26 122c0 1 6 8 10 14c-17 20 -24 40 -24 66v0v74v0v19v0
c1 49 41 89 91 89h61c50 0 91 -41 91 -91v0v0v0v-81h-41v81h1v0h-1c0 30 -20 61 -50 61h-61c-31 0 -51 -31 -51 -61v0v0v0v-81v0c0 -49 19 -59 52 -82c28 -19 79 -56 111 -79c41 -27 52 -81 26 -123c0 0 -6 -8 -9 -13c16 -20 23 -41 23 -67v-79zM225 258c3 4 7 9 7 9
c15 25 1 58 -23 74c-38 28 -79 57 -120 85c-5 4 -10 7 -15 11c-3 -5 -6 -9 -7 -10c-15 -24 -1 -57 24 -73c37 -28 78 -58 119 -85c6 -4 11 -8 15 -11z" />
    <glyph glyph-name="at" unicode="@" horiz-adv-x="624" 
d="M173 -131h373v-30h-373c-50 0 -91 41 -91 91v645c0 50 41 90 91 90h272c50 0 90 -40 90 -90v-484c0 -50 -40 -91 -90 -91h-10c-34 0 -61 27 -61 61v413h-101c-3 0 -6 -1 -10 -2c-11 -4 -20 -15 -20 -28v-383c0 -13 9 -25 20 -29c4 -1 7 -2 10 -2h61v-30h-61h-10
c-33 0 -60 27 -60 61v383c0 33 27 60 60 60h10h142v-30v-413c0 -13 8 -25 20 -29c3 -1 6 -2 10 -2c30 0 50 31 50 61v484c0 30 -20 60 -50 60h-272c-31 0 -51 -30 -51 -60v-645c0 -30 20 -61 51 -61z" />
    <glyph glyph-name="cent" unicode="&#xa2;" 
d="M272 353h-41v91c0 13 -8 24 -20 28c-3 1 -6 2 -10 2h-81c-3 0 -6 -1 -10 -2c-11 -4 -20 -15 -20 -28v-383c0 -13 9 -25 20 -29c4 -1 7 -2 10 -2h81c4 0 7 1 10 2c12 4 20 16 20 29v131h41v-131c0 -34 -27 -61 -61 -61h-10h-26v-70h-31v70h-24h-10c-33 0 -60 27 -60 61
v383c0 33 27 60 60 60h10h24v61h31v-61h26h10c34 0 61 -27 61 -60v-91z" />
    <glyph glyph-name="bracketleft" unicode="[" horiz-adv-x="225" 
d="M194 736h-101v-786h101v-30h-101h-10h-30v846h30h10h101v-30z" />
    <glyph glyph-name="bracketright" unicode="]" horiz-adv-x="249" 
d="M154 736h-101v30h101h10h30v-846h-30h-10h-101v30h101v786z" />
    <glyph glyph-name="braceleft" unicode="{" horiz-adv-x="320" 
d="M143 463c0 -31 -16 -59 -41 -75c25 -16 41 -44 41 -76v-302c0 -30 20 -60 50 -60h61v-30h-61c-50 0 -90 40 -90 90v302c0 30 -21 61 -51 61v30c30 0 51 30 51 60v212c0 50 40 91 90 91h61v-30h-61c-30 0 -50 -31 -50 -61v-212z" />
    <glyph glyph-name="braceright" unicode="}" horiz-adv-x="301" 
d="M163 463v212c0 30 -20 61 -50 61h-61v30h61c50 0 90 -41 90 -91v-212c0 -30 21 -60 51 -60v-30c-30 0 -51 -31 -51 -61v-302c0 -50 -40 -90 -90 -90h-61v30h61c30 0 50 30 50 60v302c0 32 16 60 41 76c-25 16 -41 44 -41 75z" />
    <glyph glyph-name="copyright" unicode="&#xa9;" horiz-adv-x="528" 
d="M271 595c50 0 91 -41 91 -91v-81h-40v81c0 30 -20 61 -51 61h-10c-30 0 -50 -31 -50 -61v-312c0 -30 20 -61 50 -61h10c31 0 51 31 51 61v111h40v-111c0 -49 -38 -89 -86 -91v0h-15c-50 0 -90 41 -90 91v322v0c5 42 38 76 80 80v1h20zM312 706c83 0 151 -68 151 -152
v-403c0 -83 -68 -151 -151 -151h-91c-83 0 -151 68 -151 151v403c0 84 68 152 151 152h91zM423 151v403c0 67 -45 121 -111 121h-91c-67 0 -111 -54 -111 -121v-403c0 -66 44 -121 111 -121h91c66 0 111 55 111 121z" />
    <glyph glyph-name="registered" unicode="&#xae;" horiz-adv-x="547" 
d="M330 706c83 0 151 -68 151 -152v-403c0 -83 -68 -151 -151 -151h-91c-83 0 -151 68 -151 151v403c0 84 68 152 151 152h91zM441 151v403c0 67 -45 121 -111 121h-91c-67 0 -111 -54 -111 -121v-403c0 -66 44 -121 111 -121h91c66 0 111 55 111 121zM380 434
c0 -36 -21 -67 -51 -82l71 -231h-41l-67 222h-53v-222h-40v464h10h30h50c47 0 86 -36 91 -81v0v-70zM239 373h50c31 0 51 31 51 61v60c0 30 -20 60 -51 60h-50v-181z" />
    <glyph glyph-name="trademark" unicode="&#x2122;" horiz-adv-x="618" 
d="M78 675v31h161v-31h-60v-292h-41v292h-60zM481 706h30v-323h-40v276l-60 -276v0h-47v0l-54 272v-272h-41v323h31h10h30l48 -221l53 221h30h10z" />
    <glyph glyph-name="less" unicode="&#x3c;" horiz-adv-x="484" 
d="M426 504v-50l-276 -162l276 -161v-50l-343 191v41z" />
    <glyph glyph-name="greater" unicode="&#x3e;" horiz-adv-x="482" 
d="M83 454v50l343 -191v-41l-343 -191v50l276 161z" />
    <glyph glyph-name="comma" unicode="," horiz-adv-x="173" 
d="M61 -91l20 182h40l-40 -182h-20z" />
    <glyph glyph-name="semicolon" unicode=";" horiz-adv-x="235" 
d="M83 -91l20 182h41l-41 -182h-20zM103 413v91h41v-91h-41z" />
    <glyph glyph-name="colon" unicode=":" horiz-adv-x="203" 
d="M80 0v91h40v-91h-40zM80 413v91h40v-91h-40z" />
    <glyph glyph-name="period" unicode="." horiz-adv-x="206" 
d="M80 0v91h40v-91h-40z" />
    <glyph glyph-name="Lslash" unicode="&#x141;" 
d="M18 342v38l207 2v-38zM101 30h191v-30h-191h-41v30v676h41v-676z" />
    <glyph glyph-name="lslash" unicode="&#x142;" horiz-adv-x="146" 
d="M18 342v38l128 2v-38zM94 0h-41v706h41v-706z" />
    <glyph glyph-name="emdash" unicode="&#x2014;" horiz-adv-x="565" 
d="M417 282h-282v41h282v-41z" />
    <glyph glyph-name="endash" unicode="&#x2013;" horiz-adv-x="354" 
d="M256 282h-171v41h171v-41z" />
    <glyph glyph-name="minus" unicode="&#x2212;" horiz-adv-x="553" 
d="M465 318v-41h-381v41h381z" />
    <glyph glyph-name="asterisk" unicode="*" horiz-adv-x="437" 
d="M344 597l-93 -34l54 -79l-33 -23l-54 79l-54 -79l-33 23l54 79l-93 34l14 38l92 -34v105h40v-105l92 34z" />
    <glyph glyph-name="parenright" unicode=")" horiz-adv-x="339" 
d="M98 766h60c51 0 91 -41 91 -91v-665c0 -50 -40 -90 -91 -90h-60v30h60c31 0 51 30 51 60v665c0 30 -20 61 -51 61h-60v30z" />
    <glyph glyph-name="parenleft" unicode="(" horiz-adv-x="329" 
d="M189 766h60v-30h-60c-31 0 -51 -31 -51 -61v-665c0 -30 20 -60 51 -60h60v-30h-60c-51 0 -91 40 -91 90v665c0 50 40 91 91 91z" />
    <glyph glyph-name="fraction" unicode="&#x2044;" horiz-adv-x="187" 
d="M190 707h40l-232 -706h-40z" />
    <glyph glyph-name="backslash" unicode="\" horiz-adv-x="203" 
d="M-42 707h40l232 -706h-40z" />
    <glyph glyph-name="quotesinglbase" unicode="&#x201a;" horiz-adv-x="202" 
d="M76 -91l20 182h40l-40 -182h-20z" />
    <glyph glyph-name="quotedblright" unicode="&#x201d;" horiz-adv-x="249" 
d="M144 706h46l-35 -202h-32zM55 706h46l-28 -202h-32z" />
    <glyph glyph-name="questiondown" unicode="&#xbf;" horiz-adv-x="359" 
d="M176 706h40v-91h-40v91zM227 0h-61c-50 0 -91 41 -91 91v141h40v-141c0 -30 20 -61 51 -61h61c30 0 50 31 50 61v121s0 40 -11 60c-10 21 -64 94 -77 112c-12 16 -13 33 -13 69v71h40v-71c0 -16 -3 -28 5 -42c15 -25 76 -108 86 -139c10 -30 11 -60 11 -60v-121
c0 -50 -41 -91 -91 -91z" />
    <glyph glyph-name="Eth" unicode="&#xd0;" horiz-adv-x="396" 
d="M247 706c50 0 91 -41 91 -91v-524c0 -50 -41 -91 -91 -91h-141h-1h-40v706h31h10h141zM247 30c30 0 50 31 50 61v524c0 30 -20 61 -50 61h-141v-646h141zM171 355h-177v41h177v-41z" />
    <glyph glyph-name="ellipsis" unicode="&#x2026;" horiz-adv-x="618" 
d="M80 0v91h40v-91h-40zM286 0v91h40v-91h-40zM492 0v91h40v-91h-40z" />
    <glyph glyph-name="quotedblbase" unicode="&#x201e;" horiz-adv-x="323" 
d="M76 -91l20 182h40l-40 -182h-20zM176 -91l20 182h40l-40 -182h-20z" />
    <glyph glyph-name="quotedblleft" unicode="&#x201c;" horiz-adv-x="250" 
d="M41 706h46l21 -202h-32zM130 706h46l14 -202h-32z" />
    <glyph glyph-name="quoteleft" unicode="&#x2018;" horiz-adv-x="156" 
d="M62 706h46l-35 -202h-32z" />
    <glyph glyph-name="quoteright" unicode="&#x2019;" horiz-adv-x="186" 
d="M41 706h46l21 -202h-32z" />
    <glyph glyph-name="perthousand" unicode="&#x2030;" horiz-adv-x="829" 
d="M401 706h41l-283 -706h-40zM505 373c23 0 41 -18 41 -40v-91v-40v-162c0 -22 -18 -40 -41 -40h-20h-60h-21c-22 0 -40 18 -40 40v162v40v91c0 22 18 40 40 40h21h60h20zM505 202v40v91c0 5 -4 10 -10 10h-10h-60h-10c-6 0 -11 -5 -11 -10v-91v-40v-162c0 -5 5 -10 11 -10
h10h60h10c6 0 10 5 10 10v162zM162 333h-20h-61h-20c-22 0 -40 18 -40 40v91v40v162c0 22 18 40 40 40h20h61h20c23 0 41 -18 41 -40v-162v-40v-91c0 -22 -18 -40 -41 -40zM81 363h61h10c6 0 10 5 10 10v91v40v162c0 5 -4 10 -10 10h-10h-61h-10c-5 0 -10 -5 -10 -10v-162
v-40v-91c0 -5 5 -10 10 -10h10zM720 373c23 0 41 -18 41 -40v-91v-40v-162c0 -22 -18 -40 -41 -40h-20h-60h-21c-22 0 -40 18 -40 40v162v40v91c0 22 18 40 40 40h21h60h20zM720 202v40v91c0 5 -4 10 -10 10h-10h-60h-10c-6 0 -11 -5 -11 -10v-91v-40v-162
c0 -5 5 -10 11 -10h10h60h10c6 0 10 5 10 10v162z" />
    <glyph glyph-name="underscore" unicode="_" horiz-adv-x="496" 
d="M510 -198h-520v43h520v-43z" />
    <glyph glyph-name="asciicircum" unicode="^" horiz-adv-x="833" 
 />
    <glyph glyph-name="asciitilde" unicode="~" horiz-adv-x="833" 
 />
    </font>
</defs>
</svg>
